<?xml version="1.0" encoding="utf-8"?><svg width="47" height="158" viewBox="0 0 47 158" xmlns="http://www.w3.org/2000/svg" xmlns:xlink="http://www.w3.org/1999/xlink"><svg width="19" height="19" viewBox="0 0 19 19" id="images--Clouse"><path fill="#FFF" fill-rule="evenodd" d="M9.293 7.879L2.929 1.515 1.515 2.929l6.364 6.364-7.071 7.071 1.414 1.414 7.07-7.07 7.779 7.777 1.414-1.414-7.778-7.778 7.071-7.071L16.364.808l-7.071 7.07z"/></svg><svg width="36" height="16" viewBox="0 0 36 16" id="images--arrow_left" y="19"><path fill-rule="evenodd" d="M7.472.27L.39 7.352a.914.914 0 0 0 0 1.296l7.082 7.082c.18.18.412.27.652.27.24 0 .472-.09.652-.27a.914.914 0 0 0 0-1.296L3.26 8.918h31.386a.921.921 0 1 0 0-1.844H3.253l5.515-5.508a.914.914 0 0 0 0-1.296.914.914 0 0 0-1.296 0z"/></svg><svg width="36" height="16" viewBox="0 0 36 16" id="images--arrow_right" y="35"><path fill-rule="evenodd" d="M28.528.27l7.082 7.082c.36.36.36.937 0 1.296l-7.082 7.082a.913.913 0 0 1-.652.27.913.913 0 0 1-.652-.27.914.914 0 0 1 0-1.296l5.516-5.516H1.354a.921.921 0 1 1 0-1.844h31.393l-5.515-5.508a.914.914 0 0 1 0-1.296.914.914 0 0 1 1.296 0z"/></svg><svg width="35" height="48" viewBox="0 0 35 48" id="images--docs" y="51"><g fill-rule="evenodd"><path d="M34.652 12.905L22.18.278A.931.931 0 0 0 21.518 0H3.944C1.81 0 .074 1.758.074 3.919V44.08C.074 46.242 1.81 48 3.944 48h27.112c2.134 0 3.87-1.758 3.87-3.919V13.576a.955.955 0 0 0-.274-.67zM22.455 3.24l9.272 9.388h-7.276c-1.1 0-1.996-.907-1.996-2.021V3.239zm10.597 40.842c0 1.115-.895 2.022-1.996 2.022H3.944c-1.1 0-1.996-.907-1.996-2.022V3.92c0-1.115.895-2.022 1.996-2.022h16.637v8.709c0 2.16 1.736 3.919 3.87 3.919h8.601V44.08z"/><path d="M24.995 24.095h-14.99a.943.943 0 0 0-.937.949c0 .523.42.948.937.948h14.99a.943.943 0 0 0 .937-.948.943.943 0 0 0-.937-.95zm0 4.237h-14.99a.943.943 0 0 0-.937.949c0 .524.42.948.937.948h14.99a.943.943 0 0 0 .937-.948.943.943 0 0 0-.937-.949zm0 4.237h-14.99a.943.943 0 0 0-.937.949c0 .524.42.948.937.948h14.99a.943.943 0 0 0 .937-.948.943.943 0 0 0-.937-.949zm-4.872 4.237H10.005a.943.943 0 0 0-.937.949c0 .524.42.949.937.949h10.118a.943.943 0 0 0 .937-.949.943.943 0 0 0-.937-.949z"/></g></svg><svg width="47" height="59" viewBox="0 0 47 59" id="images--house" y="99"><g fill="none" fill-rule="evenodd"><path fill="#FCA74B" d="M0 23.709c0 1.92.255 3.885.76 5.844.012.131.041.263.087.392.147.411 1.47 4.063 2.384 5.611 4.674 8.888 11.086 16.497 19.056 22.617.139.159.31.295.505.395.193.099.4.155.613.167a1.73 1.73 0 0 0 .903-.173c.178-.088.335-.21.465-.358C42.601 44.55 46.078 30.24 46.206 29.68c.527-2.006.794-4.014.794-5.971C47 10.75 36.459.208 23.5.208 10.544.209 0 10.753 0 23.709z"/><g fill="#F8F8F8" transform="translate(9 8)"><path d="M13.973 6.288A3.497 3.497 0 0 0 10.48 9.78a3.497 3.497 0 0 0 3.493 3.493 3.497 3.497 0 0 0 3.493-3.493 3.497 3.497 0 0 0-3.493-3.493zm0 5.589a2.096 2.096 0 1 1 0-4.192 2.096 2.096 0 0 1 0 4.192z"/><path d="M27.247 26.548H25.15V15.37h1.397a1.398 1.398 0 0 0 .988-2.386L14.961.41a1.395 1.395 0 0 0-1.976 0L9.082 4.313V2.795c0-.772-.625-1.398-1.397-1.398H6.288c-.772 0-1.398.626-1.398 1.398v5.708L.41 12.984a1.397 1.397 0 0 0 .987 2.386h1.398v11.178H.699a.698.698 0 1 0 0 1.398h26.548a.698.698 0 1 0 0-1.398zM6.287 2.795h1.398v2.914L6.288 7.106V2.795zm9.782 23.753h-4.192v-9.78h4.192v9.78zm7.685 0h-6.288v-9.78c0-.772-.626-1.398-1.397-1.398h-4.192c-.772 0-1.397.626-1.397 1.397v9.781H4.192V13.973H1.397L13.973 1.397l12.575 12.576h-2.794v12.575z"/></g></g></svg></svg>